<svg id="Capa_1" enable-background="new 0 0 512 512" height="512" viewBox="0 0 512 512" width="512" xmlns="http://www.w3.org/2000/svg"><g><g><path clip-rule="evenodd" d="m10 115.305h492v-83.224c0-12.16-9.949-22.081-22.081-22.081h-447.838c-12.16 0-22.081 9.921-22.081 22.081z" fill="#ff7d95" fill-rule="evenodd"/></g><g><path clip-rule="evenodd" d="m121.91 329.799c0-74.04 60.037-134.048 134.076-134.048s134.076 60.008 134.076 134.048c0 36.935-14.938 70.383-39.089 94.647h128.946c12.132 0 22.081-9.949 22.081-22.081v-287.06h-492v287.059c0 12.132 9.921 22.081 22.081 22.081h128.946c-24.179-24.264-39.117-57.712-39.117-94.646z" fill="#fff" fill-rule="evenodd"/></g><g><path clip-rule="evenodd" d="m174.463 329.799c0-45.013 36.51-81.523 81.523-81.523v-52.525c-74.04 0-134.076 60.008-134.076 134.048z" fill="#ffec80" fill-rule="evenodd"/></g><g><path clip-rule="evenodd" d="m255.986 248.276c45.042 0 81.551 36.51 81.551 81.523h52.525c0-74.04-60.037-134.048-134.076-134.048z" fill="#ffec80" fill-rule="evenodd"/></g><g><path clip-rule="evenodd" d="m255.986 463.875c37.105 0 70.695-15.08 94.987-39.429 24.151-24.264 39.089-57.712 39.089-94.647h-52.525c0 45.042-36.51 81.551-81.551 81.551z" fill="#ffec80" fill-rule="evenodd"/></g><g><path clip-rule="evenodd" d="m161.027 424.446c24.264 24.349 57.854 39.429 94.959 39.429v-52.525c-45.013 0-81.523-36.51-81.523-81.551h-52.553c0 36.934 14.938 70.382 39.117 94.647z" fill="#ffec80" fill-rule="evenodd"/></g><g><path clip-rule="evenodd" d="m255.986 411.35c45.042 0 81.551-36.51 81.551-81.551 0-45.013-36.51-81.523-81.551-81.523-45.013 0-81.523 36.51-81.523 81.523 0 45.041 36.51 81.551 81.523 81.551z" fill="#a0e5a5" fill-rule="evenodd"/></g><g><path d="m397.737 62.639c0-5.522-4.478-10-10-10h-.057c-5.522 0-9.972 4.478-9.972 10s4.506 10 10.028 10 10.001-4.478 10.001-10z"/><path d="m451.708 62.639c0-5.522-4.478-10-10-10h-.057c-5.522 0-9.972 4.478-9.972 10s4.506 10 10.028 10 10.001-4.478 10.001-10z"/><path d="m343.767 62.639c0-5.522-4.478-10-10-10h-.057c-5.522 0-9.972 4.478-9.972 10s4.506 10 10.028 10 10.001-4.478 10.001-10z"/><path d="m60.263 62.639c0 5.522 4.477 10 10 10h150.262c5.523 0 10-4.478 10-10s-4.477-10-10-10h-150.262c-5.523 0-10 4.477-10 10z"/><path d="m479.919 0h-313.024c-5.523 0-10 4.478-10 10s4.477 10 10 10h313.024c6.661 0 12.081 5.42 12.081 12.081v73.224h-472v-73.224c0-6.661 5.42-12.081 12.082-12.081h44.985c5.523 0 10-4.478 10-10s-4.477-10-10-10h-44.985c-17.69 0-32.082 14.392-32.082 32.081v370.283c0 17.689 14.392 32.081 32.082 32.081h124.998c23.552 22.281 54.595 36.712 88.905 39.077v28.478c0 5.522 4.477 10 10 10s10-4.478 10-10v-28.478c34.318-2.365 65.367-16.795 88.924-39.077h125.008c17.689 0 32.081-14.392 32.081-32.081v-370.283c.002-17.689-14.39-32.081-32.079-32.081zm-233.933 453.471c-60.443-4.846-108.8-53.215-113.644-113.672h32.669c4.638 42.508 38.481 76.361 80.975 81.002zm-113.644-133.672c4.845-60.442 53.201-108.799 113.644-113.644v32.669c-42.493 4.639-76.335 38.482-80.974 80.975zm123.644 81.551c-39.438 0-71.523-32.098-71.523-71.551 0-39.438 32.085-71.523 71.523-71.523 39.454 0 71.551 32.085 71.551 71.523 0 39.453-32.098 71.551-71.551 71.551zm10-162.526v-32.669c60.456 4.844 108.825 53.201 113.671 113.644h-32.669c-4.64-42.494-38.494-76.337-81.002-80.975zm0 214.647v-32.67c42.509-4.64 76.363-38.494 81.002-81.002h32.669c-4.845 60.458-53.214 108.827-113.671 113.672zm226.014-51.107c0 6.661-5.42 12.081-12.081 12.081h-107.421c15.482-21.252 25.298-46.878 27.211-74.646h28.479c5.522 0 10-4.478 10-10s-4.478-10-10-10h-28.479c-4.927-71.476-62.232-128.77-133.722-133.695v-28.478c0-5.522-4.478-10-10-10s-10 4.478-10 10v28.478c-71.475 4.926-128.769 62.219-133.695 133.695h-28.479c-5.523 0-10 4.478-10 10s4.477 10 10 10h28.478c1.913 27.769 11.727 53.395 27.206 74.646h-107.415c-6.662 0-12.082-5.42-12.082-12.081v-277.06h472z"/><path d="m290.441 300.279c-4.23-3.546-10.539-2.992-14.087 1.243l-30.166 36.003-11.774-9.972c-4.213-3.569-10.524-3.046-14.094 1.168-3.569 4.215-3.046 10.524 1.168 14.094l19.445 16.469c4.174 3.534 10.618 2.981 14.128-1.209l36.623-43.708c3.547-4.233 2.991-10.541-1.243-14.088z"/><path d="m121.995 20h.028c5.523 0 9.986-4.478 9.986-10s-4.491-10-10.014-10-10 4.478-10 10 4.477 10 10 10z"/></g></g></svg>